P1
# CREATOR: GIMP PNM Filter Version 1.1
178 36
0000000000000000000000000000000000000000000000000000000000000000000000
0000000000000000000000000000000000000000000000000000000000000000000000
0000000000000000000000000000000000000000000000000000000000000000000000
0000000000000000000000000000000000000000000000000000000000000000000000
0000000000000000000000000000000000000000000000000000000000000000000000
0000000000000000000000000000000000000000000000000000000000000000000000
0000000000000000000000000000000000000000000000000000000000000000000000
0000000000000000000000000000000000000000000000000000000000000000000000
0000000000000000000000000000000000000000000000111111111111111000000000
0000001110000000000000000000000000000000000000000000000000000000000000
0000000000000000000000000000000000000000000000000000000000000000000000
0000000000000000000000000000000000000000000000000000000000000000000000
0000000000000000000000000000000000000000000000000000000000000000000000
0000000000000000000000000000000000000000000000000000000000000000000000
0000000000000000000000000000000000000000000000000000000000000000000000
0000000000000000000000000000000000000000000000000000000000000000000000
0000000000000000000000000000000000100000000000000000000000000000000000
0000000000000000000000000000000000000000000000000000000000000000000000
0000000000000000000000000000000000000000000000000000000010000000000000
0100000000000000100000100000000000000000000000000000000000000000000000
0000000000000000000000000000000000000000000000000000000000000000000000
0000000000000000000000001000000000000001000000000000001000001000000000
0000000000000000000000000000000000000000000000000000000000000000000000
0000000000000000000000000000000000000000000000000000000000000010000000
0000001000000000000000100000100000000000000000000000000000000000000000
0000000000000000000000000000000000000000000000000000000000000000000000
0011111111111111100000000011101011111111100010000000011111101000001000
0111111111111111000000000111111000000000000000000000000000000000000000
0000000000000000000000000000000000000000000000000000000000000000000000
0000000000000000000000000000000000000000000000000000000000000000000000
0000000000000000000000000000000000000000000000000000000000000000000000
0000000000000000000000000000000000000000000000000000000000000000000000
0000000000000000000000000000000000000000000000000000000000000000000000
0000000000000000000000000000000000000000000001000000000100000100000001
0000010000000000001000000010000000000000000010000000001000001000000010
0000100000000000000000000000000000000000000000000000000000000000000000
0000000000001000000000010000010000001000001000001000000010000001000000
0000000010010000000000100000100000010000010000000000000000000000000000
0000000000000000000000000000000000000000000000000010000000000010000010
0000100000100000100000000100000100000000000000100100000000000100000100
0001000001000000000000000000000000000000000000000000000000000000000000
0000000000000000010000000000001000001000010000010000001000000001000010
0000000000000010100000000000010000010000100000100000000000000000000000
0000000000000000000000000000000000000000000000000000000100000111000001
0000010001000001000000101110000010001000001110000000101000001110000010
0000100010000010000000000000000000000000000000000000000000000000000000
0000000000000000000000000000000000000000000000000000000000000000000000
0000000000000000000000000000000000000000000000000000000000000000000000
0000000000000000000000000000000000000000000000000000000000000000000000
0000000000000000000000000000000000000000000000000000000000000000000000
0000000000000000000000000000000000000000000000000000000000000000000000
0000000000000000000000000000000000000000000110000000000000100000000000
0000000000000000000000000000000000000000001100000000000001000000000000
0000000000000000000000000000000000000000000000000000000000000000010000
0000000000101000001010000100000000000000000000100000000000100000100000
0000000001010000010100001000000000000000000000000000000000000000000000
0000000000000000000000000000000001000000000000001001000011000001000000
0000000010000010000010000010000010000000000000010010000110000010000000
0000000000000000000000000000000000000000000000000000000000000000000000
0100000000000001000100000100001000000000000000000000100000000000100000
1000000000000010001000001000010000000000000000000000000000000000000000
0000000000000000000000000000000000000001000000011111110000100000000010
0000111111111000000010000000111010000010000000111111100001000000000100
0000000000000000000000000000000000000000000000000000000000000000000000
0000000000000000000000000000000000000000000000000000000000000000000000
0000000000000000000000000000000000000000000000000000000000000000000000
0000000000000000000000000000000000000000000000000000000000000000000000
0000000000000000000000000000000000000000000000000000000000000000000000
0000000000000000000000000000000000000000000000000000000000000000000000
0000000000000001000000000000000001000000010000000000000000000010001000
0000000000000010000000000000000010000000100000000000000000000000000000
0000000000000000000000000000000000000000000000000000010000000000001000
0100000010000010000000000000010000100000000000000010100000000000010000
1000000100000000000000000000000000000000000000000000000000000000000000
0000000000000000000000100000000000100000100000100000100000000000000100
0001000000000000001001000000000001000001000001000000000000000000000000
0000000000000000000000000000000000000000000000000000000000001000000000
0010000010000100000010000000000000100000010000000010000010010000000000
0100000100001000000000000000000000000000000000000000000000000000000000
0000000000000000000000000000011111111110100000011111000000101111111111
1110000000111111100011101000111111111101000000111110000000000000000000
0000000000000000000000000000000000000000000000000000000000000000000000
0000000000000000000000000000000000000000000000000000000000000000000000
0000000000000000000000000000000000000000000000000000000000000000000000
0000000000000000000000000000000000000000000000000000000000000000000000
0000000000000000000000000000000000000000000000000000000000000000000000
0000000000000000000000000000000000000000000000000000000000000000000000
0000000000000000000000000000000000000000000000000000000000000000000000
0000000000000000000000000000000000000000000000000000000000000000000000
0000000000000000000000000000000000000000000000000000000000000000000000
0000000000000000000000000000000000000000000000000000000000000000000000
00000000000000000000000000000000000000