P1
# CREATOR: GIMP PNM Filter Version 1.1
178 121
0000000000000000000000000000000000000000000000000000000000000000000000
0000000000000000000000000000000000000000000000000000000000000000000000
0000000000000000000000000000000000000000000000000000000000000000000000
0000000000000000000000000000000000000000000000000000000000000000000000
0000000000000000000000000000000000000000000000000000000000000000000000
0000000000000000000000000000000000000000000000000000000000000000000000
0000000000000000000000000000000000000000000000000000000000000000000000
0000000000000000000000000000000000000000000000000000000000000000000000
0000000000000000000000000000000000000000000000000000000000000000000000
0000000000000000000000000000000000000000000000000000000000000000000000
0000000000000000000000000000000000000000000000000000000000000000000000
0000000000000000000000000000000000000000000000000000000000000000000000
0000000000000000000000000000000000000000000000000000000000000000000000
0000000000000000000000000000000000000000000000000000000000000000000000
0000000000000000000000000000000000000000000000000000000000000000000000
0000000000000000000000000000000000000000000000000000000000000000000000
0000000000000000000000000000000000000000000000000000000000000000000000
0000000000000000000000000000000000000000000000000000000000000000000000
0000000000000000000000000000000000000000000000000000000000000000000000
0000000000000000000000000000000000000000000000000000000000000000000000
0000000000000000000000000000000000000000000000000000000000000000000000
0000000000000000000000000000000000000000000000000000000000000000000000
0000000000000000000000000000000000000000000000000000000000000000000000
0000000000000000000000000000000000000000000000000000000000000000000000
0000000000000000000000000000000000000000000000000000000000000000000000
0000000000000000000000000000000000000000000000000000000000000000000000
0000000000000000000000000000000000000000000000000000000000000000000000
0000000000000000000000000000000000000000000000000000000000000000000000
0000000000000000000000000000000000000000000000000000000000000000000000
0000000000000000000000000000000000000000000000000000000000000000000000
0000000000000000000000000000000000000000000000000000000000000000000000
0000000000000000000000000000000000000000000000000000000000000000000000
0000000000000000000000000000000000000000000000000000000000000000000000
0000000000000000000000000000000000000000000000000000000000000000000000
0000000000000000000000000000000000000000000000000000000000000000000000
0000000000000000000000000000000000000000000000000000000000000000000000
0000000000000000000000000000000000000000000000000000000000000000000000
0000000000000000000000000000000000000000000000000000000000000000000000
0000000000000000000000000000000000000000000000000000000000000000000000
0000000000000000000000000000000000000000000000000000000000000000000000
0000000000000000000000000000000000000000000000000000000000000000000000
0000000000000000000000000000000000000000000000000000000000000000000000
0000000000000000000000000000000000000000000000000000000000000000000000
0000000000000000000000000000000000000000000000000000000000000000000000
0000000000000000000000000000000000000000000000000000000000000000000000
0000000000000000000000000000000000000000000000000000000000000000000000
0000000000000000000000000000000000000000000000000000000000000000000000
0000000000000000000000000000000000000000000000000000000000000000000000
0000000000000000000000000000000000000000000000000000000000000000000000
0000000000000000000000000000000000000000000000000000000000000000000000
0000000000000000000000000000000000000000000000000000000000000000000000
0000000000000000000000000000000000000000000000000000000000000000000000
0000000000000000000000000000000000000000000000000000000000000000000000
0000000000000000000000000000000000000000000000000000000000000000000000
0000000000000000000000000000000000000000000000000000000000000000000000
0000000000000000000000000000000000000000000000000000000000000000000000
0000000000000000000000000000000000000000000000000000000000000000000000
0000000000000000000000000000000000000000000000000000000000000000000000
0000000000000000000000000000000000000000000000000000000000000000000000
0000000000000000000000000000000000000000000000000000000000000000000000
0000000000000000000000000000000000000000000000000000000000000000000000
0000000000000000000000000000000000000000000000000000000000000000000000
0000000000000000000000000000000001111111111111110000000000000001110000
0000000000000000000000000000000000000000000000000000000000000000000000
0000000000000000000000000000000000000000000000000000000000000000000000
0000000000000000000000000000000000000000000000000000000000000000000000
0000000000000000000000000000000000000000000000000000000000000000000000
0000000000000000000000000000000000000000000000000000000000000000000000
0000000000000000000000000000000000000000000000000000000000000000000000
0000000000000000000000000000000000000000000000000000000000000000000000
0000000000000000000001000000000000000000000000000000000000000000000000
0000000000000000000000000000000000000000000000000000111111110000000000
0000000000000000000000000000000000000000000100000000000000100000000000
0001000001000000000000000000000000000000000000000000000000000000000000
0000000000000000001111111111110000000000000000000000000000000000000000
0000000000010000000000000010000000000000010000010000000000000000000000
0000000000000000000000000000000000000000000000000000000111111111111111
0000000000000000000000000000000000000000000000000100000000000001000000
0000000001000001000000000000000000000000000000000000000000000000000000
0000000000000000000000111111111111111110000000000000000000011111111111
1111000000000111010111111111000100000000111111010000010000111111111111
1110000000001111110000000000000000000000000000000000000000011111111111
1100111100000000000000000000000000000000000000000000000000000000000000
0000000000000000000000000000000000000000000000000000000000000000000000
0000000000000000000000000001111111111111011111100000000000000000000000
0000000000000000000000000000000000000000000000000000000000000000000000
0000000000000000000000000000000000000000000000000000000000000000011111
1111111111111110000000000000000010000000001000001000000010000010000000
0000010000000100000000000000000100000000010000010000000100000100000000
0000000000000000000000000000000011111111111111111111100000000000000001
0000000000100000100000010000010000010000000100000010000000000000010010
0000000001000001000000100000100000000000000000000000000000000000000000
1111111111111111111111000000000000000100000000000100000100000100000100
0001000000001000001000000000000001001000000000001000001000001000001000
0000000000000000000000000000000000000011111111111111111111110000000000
0000100000000000010000010000100000100000010000000010000100000000000000
0101000000000000100000100001000001000000000000000000000000000000000000
0000001111111111111111111111000000000000001000001110000010000010001000
0010000001011100000100010000011100000001010000011100000100000100010000
0100000000000000000000000000000000000000000011100111111000011111111000
0000000000000000000000000000000000000000000000000000000000000000000000
0000000000000000000000000000000000000000000000000000000000000000000000
0000000000001100001111000000111111100000000000000000000000000000000000
0000000000000000000000000000000000000000000000000000000000000000000000
0000000000000000000000000000000000000000000000000011011001110011001111
1110000000000000000000000000001100000000000001000000000000000000000000
0000000000000000000000000000011000000000000010000000000000000000000000
0000000000000000001111100111011110011111100000000000100000000000000101
0000010100001000000000000000000001000000000001000001000000000000001010
0000101000010000000000000000000000000000000000000000000011111101110111
1001111110000000000010000000000000010010000110000010000000000000010000
0100000100000100000100000000000000100100001100000100000000000000000000
0000000000000000000000001111111111111110011111000000000000100000000000
0010001000001000010000000000000000000001000000000001000001000000000000
0100010000010000100000000000000000000000000000000000000000000011011000
0000111011111100000000000010000000111111100001000000000100000111111111
0000000100000001110100000100000001111111000010000000001000000000000000
0000000000000000000000000000001110001001000001111111100000000000000000
0000000000000000000000000000000000000000000000000000000000000000000000
0000000000000000000000000000000000000000000000000000000000000000000011
0000000000000011111110000000000000000000000000000000000000000000000000
0000000000000000000000000000000000000000000000000000000000000000000000
0000000000000000000000000000000000001100000000000011011111100000000000
0010000000000000000010000000100000000000000000000100010000000000000000
0100000000000000000100000001000000000000000000000000000000000000000000
0000111000000000110011111111000000000000100000000000010000100000010000
0100000000000000100001000000000000000101000000000000100001000000100000
0000000000000000000000000000000000000000001111000000110000111111110000
0000000001000000000001000001000001000001000000000000001000001000000000
0000010010000000000010000010000010000000000000000000000000000000000000
0000000000111111111100001101110111000000000000010000000000010000010000
1000000100000000000001000000100000000100000100100000000000100000100001
0000000000000000000000000000000000000000000000001101000000001100011110
1110000000000000111111111101000000111110000001011111111111110000000111
1111000111010001111111111010000001111100000000000000000000000000000000
0000000000000001110010000011000001111011100000000000000000000000000000
0000000000000000000000000000000000000000000000000000000000000000000000
0000000000000000000000000000000000000000000000000000011100011111000000
0011111111000000000000000000000000000000000000000000000000000000000000
0000000000000000000000000000000000000000000000000000000000000000000000
0000000000000000000011110000000000000000011111111000000000000000000000
0000000000000000000000000000000000000000000000000000000000000000000000
0000000000000000000000000000000000000000000000000000000000111000000000
0000000001111111100000000000000000000000000000000000000000000000000000
0000000000000000000000000000000000000000000000000000000000000000000000
0000000000000000000000000111100000000000000000011111111100000000000000
0000000000000000000000000000000000000000000000000000000000000000000000
0000000000000000000000000000000000000000000000000000000000000011110000
0000000000000000111111111000000000000000000000000000000000000000000000
0000000000000000000000000000000000000000000000000000000000000000000000
0000000000000000000000000000011111000000000000000000001111111111000000
0000000000000000000000000000000000000000000000000000000000000000000000
0000000000000000000000000000000000000000000000000000000000000000000111
1100000000000000000000011111111100000000000000000000000000000000000000
0000000000000000000000000000000000000000000000000000000000000000000000
0000000000000000000000000000000000111111110001110000000111110111111111
1000000000000000000000000000000000000000000000000000000000000000000000
0000000000000000000000000000000000000000000000000000000000000000000000
0111111100000010000000111111101111111111000000000000000000000000000000
0000000000000000000000000000000000000000000000000000000000000000000000
0000000000000000000000000000000000000001111110000000000000000001111011
1111111100000000000000000000000000000000000000000000000000000000000000
0000000000000000000000000000000000000000000000000000000000000000000000
0000001111110000000000000000000001111111111111100000000000000000000000
0000000000000000000000000000000000000000000000000000000000000000000000
0000000000000000000000000000000000000000000011111000000000000000000000
0001111111111110000000000000000000000000000000000000000000000000000000
0000000000000000000000000000000000000000000000000000000000000000000000
0000000000011111100000000000000000000000000111101111110000000000000000
0000000000000000000000000000000000000000000000000000000000000000000000
0000000000000000000000000000000000000000000000000111110000000000000000
0000000000001110111111000000000000000000000000000000000000000000000000
0000000000000000000000000000000000000000000000000000000000000000000000
0000000000000000111111000000000000000000000000000011110111111000000000
0000000000000000000000000000000000000000000000000000000000000000000000
0000000000000000000000000000000000000000000000000000001111100000000000
0000000000000000001111011111100000000000000000000000000000000000000000
0000000000000000000000000000000000000000000000000000000000000000000000
0000000000000000000001111110000000000000000000000000000011110111111000
0000000000000000000000000000000000000000000000000000000000000000000000
0000000000000000000000000000000000000000000000000000000000011111100000
0000000000000000000000000111101111110000000000000000000000000000000000
0000000000000000000000000000000000000000000000000000000000000000000000
0000000000000000000000000001111110000000000000000000000000000001111011
1111000000000000000011111111100000000000000000000000000000000000000000
0000000000000000000000000000000000000000000000000000000000000000111111
0000000000100000000000000000000111101111110000000000000000100000001100
0000000000000000000000000000000000000000000000000000000000000000000000
0000000000000000000000000000000011111100000000001000000000000000000001
1110111111000000000000000010000000011000000000000000000000000010000000
0001000000000000000000000000000000000000000000000000000000000000000000
1111110000000000100000000000000000000111101111110000000000000000100000
0000110000000000000000000000001000000000010000000000000000000000000000
0000000000000000000000000000000000000011111100000000001000000000000000
0000011110111111000000000000000010000000000100000000000000000000000010
0000000001000000000000000000000000000000000000000000000000000000000000
0000001111110000000000100000000000000000001100000011110000000000000000
1000000000110000000000000000000000000100000000000000000000000000000000
0000000000000000000000000000000000000000000011111100000000001000000000
0000000000101111110111000000000000000010000000111000000000000000000000
0000010000000000000000000000000000000000000000000000000000000000000000
0000000000001000111000000000000000000000000001111111111111110000000000
0000001000001110000000000000000000000000000100000000000000000000000000
0000000000000000000000000000000000000000000000000100000111000000000000
0000000000000100011111111100100000000000000010011110000000000000000000
0000000000011111110001001001110000000011101000000000000000000000000000
0000000000000000100000001110000000000000000000000010000111111110001000
0000000000001111111000000000000000000000000000111100000000010011110110
0000011011100000000000000000000000000000000000000000010000000001110000
0000000000000000001000011111110000100000000000000010000011110000011111
0000000000000000010000000001000110001100000100001000000000000000000000
0000000000000000001110000000000011110000000000000000000010000011111000
0010000000000000001000000001100110001110000011111000000100000000010001
0000010000010000100000000000000000000000000000000000001100000000000000
1111100000000000000000001000000000000000100000000000000010000000001001
0000001000011000110000010000000001001100000100001000011000000000000000
0000000000000000000001000000000000000001111100000000000000000010000000
0000000010000000000000001000000000100100000010001000000100000100000000
0100110000010000100001100000000000000000000000000000000000010000000000
0000000111111000000000000000001000000000000000011000000000000010000000
0010010000001000100000010000010000000001001100000110001100011000000000
0000000000000000000000000001000000000000000000111110000000000000000010
0000000000000000010000000000001100000001100110000110001100000100000100
0000001100110000001000010011100000100100100000000000000000000000010000
0000000000000001111000000000000000001000000000000000000010000000000011
1111111100001111110000011000110000110000000010001100000011000111101000
0000000000000000000000000000000001000000000000000000011110000000000000
0001100000000000000000000100000000000000000000000000000000000011110000
0000000000000000010000000000000000100000000000000000000000000000000000
0100000000000000000000100000000000000000111000000000000000000001000000
0000000000000000000000000000000000000000000000000000000000000000000000
0010000000000000000000000000000000000001000000000000000000000100000000
0000000111100000000000000000000100000000000000000000000000000000000000
0000000000000000000000000000000000000000100000000000000000000000000000
0000000100000000000000000000001000000000000111111000000000000000000010
0000000000000000000000000000000000000000000000000000000000000000000000
0000000010000000000000000000000000000000000001000000000000000000000010
0000000011111111100000000000000000110000000000000000000000000000000000
0000000000000000000000000000000000000000000000100000000000000000000000
0000000000000100000000000000000000000111111111111111110000000000000000
0100000000000000000000000000000000000000000000000000000000000000000000
0000000000000110000000000000000000000000000000000001000000000000000000
0000011111111111111111000000000000000110000000000000000000000000000000
0000000000000000000000000000000000000000000000000001000000000000000000
0000000000000000000010000000000000000000000111111111111111110000000000
0000100000000000000000000000000000000000000000000000000000000000000000
0000000000000000000100000000000000000000000000000000000000011100000000
0000000000011111111111111111000000000000110000000000000000000000000000
0000000000000000000000000000000000000000000000100000000010000000000000
0000000000000000000000000000001111000000000000000111000000000000110000
0000000100000000000000000000000000000000000000000000000000000000000000
0000000000000011110000011000000000000000000000000000000000000000000000
0011110000000000100000000000000000100000000010000000000000000000000000
0000000000000000000000000000000000000000000000000000000111111000000000
0000000000000000000000000000000000000000000011000000010000000000000000
0010000000010000000000000000000000000000000000000000000000000000000000
0000000000000000000000000000000000000000000000000000000000000000000000
0000000000000011111110000000000000000000111111111000000000000000000000
0000000000000000000000000000000000000000000000000000000000000000000000
0000000000000000000000000000000000000000000000000000000000000000000000
0000000000000000000000000000000000000000000000000000000000000000000000
0000000000000000000000000000000000000000000000000000000000000000000000
0000000000000000000000000000000000000000000000000000000000000000000000
0000000000000000000000000000000000000000000000000000000000000000000000
0000000000000000000000000000000000000000000000000000000000000000000000
0000000000000000000000000000000000000000000000000000000000000000000000
0000000000000000000000000000000000000000000000000000000000000000000000
0000000000000000000000000000000000000000000000000000000000000000000000
0000000000000000000000000000000000000000000000000000000000000000000000
0000000000000000000000000000000000000000000000000000000000000000000000
0000000000000000000000000000000000000000000000000000000000000000000000
0000000000000000000000000000000000000000000000000000000000000000000000
0000000000000000000000000000000000000000000000000000000000000000000000
0000000000000000000000000000000000000000000000000000000000000000000000
0000000000000000000000000000000000000000000000000000000000000000000000
0000000000000000000000000000000000000000000000000000000000000000000000
0000000000000000000000000000000000000000000000000000000000000000000000
0000000000000000000000000000000000000000000000000000000000000000000000
0000000000000000000000000000000000000000000000000000000000000000000000
0000000000000000000000000000000000000000000000000000000000000000000000
0000000000000000000000000000000000000000000000000000000000000000000000
0000000000000000000000000000000000000000000000000000000000000000000000
0000000000000000000000000000000000000000000000000000000000000000000000
0000000000000000000000000000000000000000000000000000000000000000000000
0000000000000000000000000000000000000000000000000000000000000000000000
0000000000000000000000000000000000000000000000000000000000000000000000
0000000000000000000000000000000000000000000000000000000000000000000000
0000000000000000000000000000000000000000000000000000000000000000000000
0000000000000000000000000000000000000000000000000000000000000000000000
0000000000000000000000000000000000000000000000000000000000000000000000
0000000000000000000000000000000000000000000000000000000000000000000000
0000000000000000000000000000000000000000000000000000000000000000000000
0000000000000000000000000000000000000000000000000000000000000000000000
0000000000000000000000000000000000000000000000000000000000000000000000
0000000000000000000000000000000000000000000000000000000000000000000000
0000000000000000000000000000000000000000000000000000000000000000000000
0000000000000000000000000000000000000000000000000000000000000000000000
0000000000000000000000000000000000000000000000000000000000000000000000
0000000000000000000000000000000000000000000000000000000000000000000000
0000000000000000000000000000000000000000000000000000000000000000000000
0000000000000000000000000000000000000000000000000000000000000000000000
0000000000000000000000000000000000000000000000000000000000000000000000
0000000000000000000000000000000000000000000000000000000000000000000000
0000000000000000000000000000000000000000000000000000000000000000000000
0000000000000000000000000000000000000000000000000000000000000000000000
0000000000000000000000000000000000000000000000000000000000000000000000
0000000000000000000000000000000000000000000000000000000000000000000000
000000000000000000000000000000000000000000000000